<svg width="50" height="9" viewBox="0 0 50 9" fill="none" xmlns="http://www.w3.org/2000/svg">
<path d="M0.136719 0.921875H2.12109V1.66406H1.17578V7.3125H2.12109V8.05469H0.136719V0.921875ZM26.8125 6.83203C26.6302 6.92578 26.4388 6.99609 26.2383 7.04297C26.0378 7.08984 25.8268 7.11328 25.6055 7.11328C24.819 7.11328 24.2188 6.85417 23.8047 6.33594C23.3906 5.81771 23.1836 5.06901 23.1836 4.08984C23.1836 3.10807 23.3906 2.35807 23.8047 1.83984C24.2188 1.32161 24.819 1.0625 25.6055 1.0625C25.8268 1.0625 26.0391 1.08594 26.2422 1.13281C26.4453 1.17969 26.6354 1.25 26.8125 1.34375V2.625C26.6146 2.44271 26.4219 2.3099 26.2344 2.22656C26.0495 2.14062 25.8581 2.09766 25.6602 2.09766C25.2383 2.09766 24.9193 2.26562 24.7031 2.60156C24.4896 2.9349 24.3828 3.43099 24.3828 4.08984C24.3828 4.74609 24.4896 5.24219 24.7031 5.57812C24.9193 5.91146 25.2383 6.07812 25.6602 6.07812C25.8581 6.07812 26.0495 6.03646 26.2344 5.95312C26.4219 5.86719 26.6146 5.73307 26.8125 5.55078V6.83203ZM28.9219 5.17578V1.80078H27.7617V0.921875H30.0664V5.17578C30.0664 5.51953 30.1198 5.76302 30.2266 5.90625C30.3333 6.04948 30.5143 6.12109 30.7695 6.12109H31.6836V7H30.4492C29.9049 7 29.5143 6.85938 29.2773 6.57812C29.0404 6.29688 28.9219 5.82943 28.9219 5.17578ZM34.6367 3.44922C34.3633 3.44922 34.1484 3.57031 33.9922 3.8125C33.8359 4.05208 33.7578 4.38672 33.7578 4.81641C33.7578 5.24609 33.8359 5.58203 33.9922 5.82422C34.1484 6.0638 34.3633 6.18359 34.6367 6.18359C34.9128 6.18359 35.1289 6.0638 35.2852 5.82422C35.4414 5.58203 35.5195 5.24609 35.5195 4.81641C35.5195 4.38672 35.4414 4.05208 35.2852 3.8125C35.1289 3.57031 34.9128 3.44922 34.6367 3.44922ZM32.6133 4.81641C32.6133 4.11068 32.7956 3.55208 33.1602 3.14062C33.5273 2.72656 34.0195 2.51953 34.6367 2.51953C35.2565 2.51953 35.7487 2.72656 36.1133 3.14062C36.4805 3.55208 36.6641 4.11068 36.6641 4.81641C36.6641 5.52214 36.4805 6.08203 36.1133 6.49609C35.7487 6.90755 35.2565 7.11328 34.6367 7.11328C34.0195 7.11328 33.5273 6.90755 33.1602 6.49609C32.7956 6.08203 32.6133 5.52214 32.6133 4.81641ZM37.6758 5.47266V2.625H38.8203V5.29688C38.8203 5.61198 38.8646 5.83724 38.9531 5.97266C39.0417 6.10807 39.1888 6.17578 39.3945 6.17578C39.6003 6.17578 39.7604 6.08464 39.875 5.90234C39.9922 5.72005 40.0508 5.46484 40.0508 5.13672V2.625H41.1953V7H40.0508V6.35156C39.9701 6.59375 39.832 6.78125 39.6367 6.91406C39.444 7.04688 39.2109 7.11328 38.9375 7.11328C38.5208 7.11328 38.2057 6.97526 37.9922 6.69922C37.7812 6.42318 37.6758 6.01432 37.6758 5.47266ZM44.9609 3.24609V0.921875H46.1016V7H44.9609V6.35156C44.8385 6.60417 44.6797 6.79427 44.4844 6.92188C44.2917 7.04948 44.0638 7.11328 43.8008 7.11328C43.3008 7.11328 42.9128 6.91276 42.6367 6.51172C42.3607 6.11068 42.2227 5.54557 42.2227 4.81641C42.2227 4.07682 42.362 3.50911 42.6406 3.11328C42.9219 2.71745 43.3216 2.51953 43.8398 2.51953C44.0742 2.51953 44.2839 2.58073 44.4688 2.70312C44.6562 2.82292 44.8203 3.00391 44.9609 3.24609ZM43.3672 4.82422C43.3672 5.24609 43.4375 5.57682 43.5781 5.81641C43.7188 6.05599 43.9128 6.17578 44.1602 6.17578C44.4076 6.17578 44.6029 6.05599 44.7461 5.81641C44.8893 5.57682 44.9609 5.24609 44.9609 4.82422C44.9609 4.40234 44.8893 4.07161 44.7461 3.83203C44.6029 3.59245 44.4076 3.47266 44.1602 3.47266C43.9128 3.47266 43.7188 3.59245 43.5781 3.83203C43.4375 4.07161 43.3672 4.40234 43.3672 4.82422ZM49.9961 0.921875V8.05469H48.0117V7.3125H48.957V1.66406H48.0117V0.921875H49.9961Z" fill="#FFFFFF"/>
<path d="M7.53125 6.83203C7.34896 6.92578 7.15755 6.99609 6.95703 7.04297C6.75651 7.08984 6.54557 7.11328 6.32422 7.11328C5.53776 7.11328 4.9375 6.85417 4.52344 6.33594C4.10938 5.81771 3.90234 5.06901 3.90234 4.08984C3.90234 3.10807 4.10938 2.35807 4.52344 1.83984C4.9375 1.32161 5.53776 1.0625 6.32422 1.0625C6.54557 1.0625 6.75781 1.08594 6.96094 1.13281C7.16406 1.17969 7.35417 1.25 7.53125 1.34375V2.625C7.33333 2.44271 7.14062 2.3099 6.95312 2.22656C6.76823 2.14062 6.57682 2.09766 6.37891 2.09766C5.95703 2.09766 5.63802 2.26562 5.42188 2.60156C5.20833 2.9349 5.10156 3.43099 5.10156 4.08984C5.10156 4.74609 5.20833 5.24219 5.42188 5.57812C5.63802 5.91146 5.95703 6.07812 6.37891 6.07812C6.57682 6.07812 6.76823 6.03646 6.95312 5.95312C7.14062 5.86719 7.33333 5.73307 7.53125 5.55078V6.83203ZM10.5352 3.44922C10.2617 3.44922 10.0469 3.57031 9.89062 3.8125C9.73438 4.05208 9.65625 4.38672 9.65625 4.81641C9.65625 5.24609 9.73438 5.58203 9.89062 5.82422C10.0469 6.0638 10.2617 6.18359 10.5352 6.18359C10.8112 6.18359 11.0273 6.0638 11.1836 5.82422C11.3398 5.58203 11.418 5.24609 11.418 4.81641C11.418 4.38672 11.3398 4.05208 11.1836 3.8125C11.0273 3.57031 10.8112 3.44922 10.5352 3.44922ZM8.51172 4.81641C8.51172 4.11068 8.69401 3.55208 9.05859 3.14062C9.42578 2.72656 9.91797 2.51953 10.5352 2.51953C11.1549 2.51953 11.6471 2.72656 12.0117 3.14062C12.3789 3.55208 12.5625 4.11068 12.5625 4.81641C12.5625 5.52214 12.3789 6.08203 12.0117 6.49609C11.6471 6.90755 11.1549 7.11328 10.5352 7.11328C9.91797 7.11328 9.42578 6.90755 9.05859 6.49609C8.69401 6.08203 8.51172 5.52214 8.51172 4.81641ZM16.0391 3.24609V0.921875H17.1797V7H16.0391V6.35156C15.9167 6.60417 15.7578 6.79427 15.5625 6.92188C15.3698 7.04948 15.1419 7.11328 14.8789 7.11328C14.3789 7.11328 13.9909 6.91276 13.7148 6.51172C13.4388 6.11068 13.3008 5.54557 13.3008 4.81641C13.3008 4.07682 13.4401 3.50911 13.7188 3.11328C14 2.71745 14.3997 2.51953 14.918 2.51953C15.1523 2.51953 15.362 2.58073 15.5469 2.70312C15.7344 2.82292 15.8984 3.00391 16.0391 3.24609ZM14.4453 4.82422C14.4453 5.24609 14.5156 5.57682 14.6562 5.81641C14.7969 6.05599 14.9909 6.17578 15.2383 6.17578C15.4857 6.17578 15.681 6.05599 15.8242 5.81641C15.9674 5.57682 16.0391 5.24609 16.0391 4.82422C16.0391 4.40234 15.9674 4.07161 15.8242 3.83203C15.681 3.59245 15.4857 3.47266 15.2383 3.47266C14.9909 3.47266 14.7969 3.59245 14.6562 3.83203C14.5156 4.07161 14.4453 4.40234 14.4453 4.82422ZM22.0742 6.78516C21.8086 6.89453 21.5378 6.97656 21.2617 7.03125C20.9857 7.08594 20.694 7.11328 20.3867 7.11328C19.6549 7.11328 19.0951 6.91797 18.707 6.52734C18.3216 6.13411 18.1289 5.56901 18.1289 4.83203C18.1289 4.11849 18.3151 3.55469 18.6875 3.14062C19.0599 2.72656 19.5677 2.51953 20.2109 2.51953C20.8594 2.51953 21.362 2.71224 21.7188 3.09766C22.0781 3.48047 22.2578 4.02083 22.2578 4.71875V5.18359H19.293C19.2956 5.52734 19.3971 5.78385 19.5977 5.95312C19.7982 6.1224 20.0977 6.20703 20.4961 6.20703C20.7591 6.20703 21.0182 6.16927 21.2734 6.09375C21.5286 6.01823 21.7956 5.89844 22.0742 5.73438V6.78516ZM21.1055 4.32422C21.1003 4.02214 21.0221 3.79427 20.8711 3.64062C20.7227 3.48438 20.5026 3.40625 20.2109 3.40625C19.9479 3.40625 19.7383 3.48698 19.582 3.64844C19.4258 3.80729 19.3333 4.03385 19.3047 4.32812L21.1055 4.32422Z" fill="#FFFFFF"/>
</svg>
