<svg xmlns="http://www.w3.org/2000/svg" xmlns:xlink="http://www.w3.org/1999/xlink" width="500"
  zoomAndPan="magnify" viewBox="0 0 375 374.999991" height="500" preserveAspectRatio="xMidYMid meet"
  version="1.0">
  <defs>
    <g />
    <clipPath id="1aee0edce6">
      <path d="M 38 148.1875 L 112.757812 148.1875 L 112.757812 227 L 38 227 Z M 38 148.1875 "
        clip-rule="nonzero" />
    </clipPath>
    <clipPath id="7ccd2c3582">
      <path
        d="M 80.898438 184.816406 L 47.464844 184.816406 C 46.167969 184.816406 45.230469 183.578125 45.582031 182.328125 L 54.757812 149.617188 C 54.996094 148.773438 55.765625 148.1875 56.644531 148.1875 L 90.078125 148.1875 C 91.375 148.1875 92.3125 149.425781 91.960938 150.675781 L 82.785156 183.386719 C 82.546875 184.230469 81.777344 184.816406 80.898438 184.816406 Z M 59.183594 209.507812 L 63.910156 192.664062 C 64.257812 191.414062 63.320312 190.179688 62.023438 190.179688 L 44.835938 190.179688 C 43.960938 190.179688 43.191406 190.761719 42.953125 191.605469 L 38.226562 208.449219 C 37.875 209.699219 38.816406 210.933594 40.113281 210.933594 L 57.296875 210.933594 C 58.175781 210.933594 58.945312 210.351562 59.183594 209.507812 Z M 67.878906 191.605469 L 58.703125 224.316406 C 58.351562 225.566406 59.289062 226.804688 60.585938 226.804688 L 94.019531 226.804688 C 94.898438 226.804688 95.667969 226.21875 95.902344 225.375 L 105.082031 192.664062 C 105.433594 191.414062 104.496094 190.179688 103.199219 190.179688 L 69.765625 190.179688 C 68.886719 190.179688 68.117188 190.761719 67.878906 191.605469 Z M 91.480469 165.484375 L 86.753906 182.328125 C 86.402344 183.578125 87.34375 184.816406 88.640625 184.816406 L 105.824219 184.816406 C 106.703125 184.816406 107.472656 184.230469 107.710938 183.386719 L 112.4375 166.542969 C 112.785156 165.296875 111.847656 164.058594 110.550781 164.058594 L 93.363281 164.058594 C 92.488281 164.058594 91.71875 164.640625 91.480469 165.484375 Z M 91.480469 165.484375 "
        clip-rule="nonzero" />
    </clipPath>
    <linearGradient x1="114.296433"
      gradientTransform="matrix(0.15723, 0, 0, 0.15723, 38.153118, 148.188996)" y1="-47.633991"
      x2="358.596347" gradientUnits="userSpaceOnUse" y2="547.571882" id="81e83fb00a">
      <stop stop-opacity="1" stop-color="rgb(14.498901%, 38.798523%, 92.199707%)" offset="0" />
      <stop stop-opacity="1" stop-color="rgb(14.498901%, 38.798523%, 92.199707%)" offset="0.0625" />
      <stop stop-opacity="1" stop-color="rgb(14.491272%, 38.890076%, 92.214966%)" offset="0.09375" />
      <stop stop-opacity="1" stop-color="rgb(14.466858%, 39.227295%, 92.269897%)" offset="0.0976562" />
      <stop stop-opacity="1" stop-color="rgb(14.448547%, 39.472961%, 92.311096%)" offset="0.101562" />
      <stop stop-opacity="1" stop-color="rgb(14.430237%, 39.718628%, 92.352295%)" offset="0.105469" />
      <stop stop-opacity="1" stop-color="rgb(14.411926%, 39.96582%, 92.393494%)" offset="0.109375" />
      <stop stop-opacity="1" stop-color="rgb(14.393616%, 40.211487%, 92.434692%)" offset="0.113281" />
      <stop stop-opacity="1" stop-color="rgb(14.375305%, 40.457153%, 92.475891%)" offset="0.117188" />
      <stop stop-opacity="1" stop-color="rgb(14.356995%, 40.70282%, 92.51709%)" offset="0.121094" />
      <stop stop-opacity="1" stop-color="rgb(14.338684%, 40.950012%, 92.558289%)" offset="0.125" />
      <stop stop-opacity="1" stop-color="rgb(14.318848%, 41.195679%, 92.599487%)" offset="0.128906" />
      <stop stop-opacity="1" stop-color="rgb(14.300537%, 41.441345%, 92.640686%)" offset="0.132812" />
      <stop stop-opacity="1" stop-color="rgb(14.282227%, 41.687012%, 92.681885%)" offset="0.136719" />
      <stop stop-opacity="1" stop-color="rgb(14.263916%, 41.934204%, 92.723083%)" offset="0.140625" />
      <stop stop-opacity="1" stop-color="rgb(14.245605%, 42.179871%, 92.764282%)" offset="0.144531" />
      <stop stop-opacity="1" stop-color="rgb(14.227295%, 42.425537%, 92.805481%)" offset="0.148438" />
      <stop stop-opacity="1" stop-color="rgb(14.208984%, 42.671204%, 92.84668%)" offset="0.152344" />
      <stop stop-opacity="1" stop-color="rgb(14.190674%, 42.918396%, 92.887878%)" offset="0.15625" />
      <stop stop-opacity="1" stop-color="rgb(14.172363%, 43.164062%, 92.927551%)" offset="0.160156" />
      <stop stop-opacity="1" stop-color="rgb(14.154053%, 43.411255%, 92.96875%)" offset="0.164062" />
      <stop stop-opacity="1" stop-color="rgb(14.135742%, 43.656921%, 93.009949%)" offset="0.167969" />
      <stop stop-opacity="1" stop-color="rgb(14.117432%, 43.902588%, 93.051147%)" offset="0.171875" />
      <stop stop-opacity="1" stop-color="rgb(14.097595%, 44.148254%, 93.092346%)" offset="0.175781" />
      <stop stop-opacity="1" stop-color="rgb(14.079285%, 44.395447%, 93.133545%)" offset="0.179688" />
      <stop stop-opacity="1" stop-color="rgb(14.060974%, 44.641113%, 93.174744%)" offset="0.183594" />
      <stop stop-opacity="1" stop-color="rgb(14.042664%, 44.88678%, 93.215942%)" offset="0.1875" />
      <stop stop-opacity="1" stop-color="rgb(14.024353%, 45.132446%, 93.257141%)" offset="0.191406" />
      <stop stop-opacity="1" stop-color="rgb(14.006042%, 45.379639%, 93.29834%)" offset="0.195312" />
      <stop stop-opacity="1" stop-color="rgb(13.987732%, 45.625305%, 93.339539%)" offset="0.199219" />
      <stop stop-opacity="1" stop-color="rgb(13.969421%, 45.870972%, 93.380737%)" offset="0.203125" />
      <stop stop-opacity="1" stop-color="rgb(13.951111%, 46.116638%, 93.421936%)" offset="0.207031" />
      <stop stop-opacity="1" stop-color="rgb(13.9328%, 46.363831%, 93.463135%)" offset="0.210938" />
      <stop stop-opacity="1" stop-color="rgb(13.91449%, 46.609497%, 93.504333%)" offset="0.214844" />
      <stop stop-opacity="1" stop-color="rgb(13.896179%, 46.855164%, 93.545532%)" offset="0.21875" />
      <stop stop-opacity="1" stop-color="rgb(13.876343%, 47.10083%, 93.585205%)" offset="0.222656" />
      <stop stop-opacity="1" stop-color="rgb(13.858032%, 47.348022%, 93.626404%)" offset="0.226563" />
      <stop stop-opacity="1" stop-color="rgb(13.839722%, 47.593689%, 93.667603%)" offset="0.230469" />
      <stop stop-opacity="1" stop-color="rgb(13.821411%, 47.840881%, 93.708801%)" offset="0.234375" />
      <stop stop-opacity="1" stop-color="rgb(13.803101%, 48.086548%, 93.75%)" offset="0.238281" />
      <stop stop-opacity="1" stop-color="rgb(13.78479%, 48.332214%, 93.791199%)" offset="0.242188" />
      <stop stop-opacity="1" stop-color="rgb(13.766479%, 48.577881%, 93.832397%)" offset="0.246094" />
      <stop stop-opacity="1" stop-color="rgb(13.748169%, 48.825073%, 93.873596%)" offset="0.25" />
      <stop stop-opacity="1" stop-color="rgb(13.729858%, 49.07074%, 93.914795%)" offset="0.253906" />
      <stop stop-opacity="1" stop-color="rgb(13.711548%, 49.316406%, 93.955994%)" offset="0.257813" />
      <stop stop-opacity="1" stop-color="rgb(13.691711%, 49.562073%, 93.997192%)" offset="0.261719" />
      <stop stop-opacity="1" stop-color="rgb(13.673401%, 49.809265%, 94.038391%)" offset="0.265625" />
      <stop stop-opacity="1" stop-color="rgb(13.65509%, 50.054932%, 94.07959%)" offset="0.269531" />
      <stop stop-opacity="1" stop-color="rgb(13.63678%, 50.300598%, 94.120789%)" offset="0.273438" />
      <stop stop-opacity="1" stop-color="rgb(13.618469%, 50.546265%, 94.161987%)" offset="0.277344" />
      <stop stop-opacity="1" stop-color="rgb(13.600159%, 50.793457%, 94.203186%)" offset="0.28125" />
      <stop stop-opacity="1" stop-color="rgb(13.581848%, 51.039124%, 94.242859%)" offset="0.285156" />
      <stop stop-opacity="1" stop-color="rgb(13.563538%, 51.286316%, 94.284058%)" offset="0.289062" />
      <stop stop-opacity="1" stop-color="rgb(13.545227%, 51.531982%, 94.325256%)" offset="0.292969" />
      <stop stop-opacity="1" stop-color="rgb(13.526917%, 51.777649%, 94.366455%)" offset="0.296875" />
      <stop stop-opacity="1" stop-color="rgb(13.508606%, 52.023315%, 94.407654%)" offset="0.300781" />
      <stop stop-opacity="1" stop-color="rgb(13.490295%, 52.270508%, 94.448853%)" offset="0.304688" />
      <stop stop-opacity="1" stop-color="rgb(13.470459%, 52.516174%, 94.490051%)" offset="0.308594" />
      <stop stop-opacity="1" stop-color="rgb(13.452148%, 52.761841%, 94.53125%)" offset="0.3125" />
      <stop stop-opacity="1" stop-color="rgb(13.433838%, 53.007507%, 94.572449%)" offset="0.316406" />
      <stop stop-opacity="1" stop-color="rgb(13.415527%, 53.2547%, 94.613647%)" offset="0.320313" />
      <stop stop-opacity="1" stop-color="rgb(13.397217%, 53.500366%, 94.654846%)" offset="0.324219" />
      <stop stop-opacity="1" stop-color="rgb(13.378906%, 53.746033%, 94.696045%)" offset="0.328125" />
      <stop stop-opacity="1" stop-color="rgb(13.360596%, 53.991699%, 94.737244%)" offset="0.332031" />
      <stop stop-opacity="1" stop-color="rgb(13.342285%, 54.238892%, 94.778442%)" offset="0.335938" />
      <stop stop-opacity="1" stop-color="rgb(13.323975%, 54.484558%, 94.819641%)" offset="0.339844" />
      <stop stop-opacity="1" stop-color="rgb(13.305664%, 54.730225%, 94.86084%)" offset="0.34375" />
      <stop stop-opacity="1" stop-color="rgb(13.287354%, 54.975891%, 94.900513%)" offset="0.347656" />
      <stop stop-opacity="1" stop-color="rgb(13.269043%, 55.223083%, 94.941711%)" offset="0.351562" />
      <stop stop-opacity="1" stop-color="rgb(13.249207%, 55.46875%, 94.98291%)" offset="0.355469" />
      <stop stop-opacity="1" stop-color="rgb(13.230896%, 55.715942%, 95.024109%)" offset="0.359375" />
      <stop stop-opacity="1" stop-color="rgb(13.212585%, 55.961609%, 95.065308%)" offset="0.363281" />
      <stop stop-opacity="1" stop-color="rgb(13.194275%, 56.207275%, 95.106506%)" offset="0.367188" />
      <stop stop-opacity="1" stop-color="rgb(13.175964%, 56.452942%, 95.147705%)" offset="0.371094" />
      <stop stop-opacity="1" stop-color="rgb(13.157654%, 56.700134%, 95.188904%)" offset="0.375" />
      <stop stop-opacity="1" stop-color="rgb(13.139343%, 56.945801%, 95.230103%)" offset="0.378906" />
      <stop stop-opacity="1" stop-color="rgb(13.121033%, 57.191467%, 95.271301%)" offset="0.382813" />
      <stop stop-opacity="1" stop-color="rgb(13.102722%, 57.437134%, 95.3125%)" offset="0.386719" />
      <stop stop-opacity="1" stop-color="rgb(13.084412%, 57.684326%, 95.353699%)" offset="0.390625" />
      <stop stop-opacity="1" stop-color="rgb(13.064575%, 57.929993%, 95.394897%)" offset="0.394531" />
      <stop stop-opacity="1" stop-color="rgb(13.046265%, 58.175659%, 95.436096%)" offset="0.398438" />
      <stop stop-opacity="1" stop-color="rgb(13.027954%, 58.421326%, 95.477295%)" offset="0.402344" />
      <stop stop-opacity="1" stop-color="rgb(13.009644%, 58.668518%, 95.518494%)" offset="0.40625" />
      <stop stop-opacity="1" stop-color="rgb(12.991333%, 58.914185%, 95.558167%)" offset="0.410156" />
      <stop stop-opacity="1" stop-color="rgb(12.973022%, 59.159851%, 95.599365%)" offset="0.414062" />
      <stop stop-opacity="1" stop-color="rgb(12.954712%, 59.405518%, 95.640564%)" offset="0.417969" />
      <stop stop-opacity="1" stop-color="rgb(12.936401%, 59.65271%, 95.681763%)" offset="0.421875" />
      <stop stop-opacity="1" stop-color="rgb(12.918091%, 59.898376%, 95.722961%)" offset="0.425781" />
      <stop stop-opacity="1" stop-color="rgb(12.89978%, 60.145569%, 95.76416%)" offset="0.429688" />
      <stop stop-opacity="1" stop-color="rgb(12.88147%, 60.391235%, 95.805359%)" offset="0.433594" />
      <stop stop-opacity="1" stop-color="rgb(12.863159%, 60.636902%, 95.846558%)" offset="0.4375" />
      <stop stop-opacity="1" stop-color="rgb(12.843323%, 60.882568%, 95.887756%)" offset="0.441406" />
      <stop stop-opacity="1" stop-color="rgb(12.825012%, 61.129761%, 95.928955%)" offset="0.445312" />
      <stop stop-opacity="1" stop-color="rgb(12.806702%, 61.375427%, 95.970154%)" offset="0.449219" />
      <stop stop-opacity="1" stop-color="rgb(12.788391%, 61.621094%, 96.011353%)" offset="0.453125" />
      <stop stop-opacity="1" stop-color="rgb(12.770081%, 61.86676%, 96.052551%)" offset="0.457031" />
      <stop stop-opacity="1" stop-color="rgb(12.75177%, 62.113953%, 96.09375%)" offset="0.460937" />
      <stop stop-opacity="1" stop-color="rgb(12.733459%, 62.359619%, 96.134949%)" offset="0.464844" />
      <stop stop-opacity="1" stop-color="rgb(12.715149%, 62.605286%, 96.176147%)" offset="0.46875" />
      <stop stop-opacity="1" stop-color="rgb(12.696838%, 62.850952%, 96.21582%)" offset="0.472656" />
      <stop stop-opacity="1" stop-color="rgb(12.678528%, 63.098145%, 96.257019%)" offset="0.476562" />
      <stop stop-opacity="1" stop-color="rgb(12.660217%, 63.343811%, 96.298218%)" offset="0.480469" />
      <stop stop-opacity="1" stop-color="rgb(12.641907%, 63.591003%, 96.339417%)" offset="0.484375" />
      <stop stop-opacity="1" stop-color="rgb(12.62207%, 63.83667%, 96.380615%)" offset="0.488281" />
      <stop stop-opacity="1" stop-color="rgb(12.60376%, 64.082336%, 96.421814%)" offset="0.492188" />
      <stop stop-opacity="1" stop-color="rgb(12.585449%, 64.328003%, 96.463013%)" offset="0.496094" />
      <stop stop-opacity="1" stop-color="rgb(12.567139%, 64.575195%, 96.504211%)" offset="0.5" />
      <stop stop-opacity="1" stop-color="rgb(12.548828%, 64.820862%, 96.54541%)" offset="0.503906" />
      <stop stop-opacity="1" stop-color="rgb(12.530518%, 65.066528%, 96.586609%)" offset="0.507812" />
      <stop stop-opacity="1" stop-color="rgb(12.512207%, 65.312195%, 96.627808%)" offset="0.511719" />
      <stop stop-opacity="1" stop-color="rgb(12.493896%, 65.559387%, 96.669006%)" offset="0.515625" />
      <stop stop-opacity="1" stop-color="rgb(12.475586%, 65.805054%, 96.710205%)" offset="0.519531" />
      <stop stop-opacity="1" stop-color="rgb(12.457275%, 66.05072%, 96.751404%)" offset="0.523438" />
      <stop stop-opacity="1" stop-color="rgb(12.438965%, 66.296387%, 96.792603%)" offset="0.527344" />
      <stop stop-opacity="1" stop-color="rgb(12.420654%, 66.543579%, 96.833801%)" offset="0.53125" />
      <stop stop-opacity="1" stop-color="rgb(12.400818%, 66.789246%, 96.873474%)" offset="0.535156" />
      <stop stop-opacity="1" stop-color="rgb(12.382507%, 67.034912%, 96.914673%)" offset="0.539062" />
      <stop stop-opacity="1" stop-color="rgb(12.364197%, 67.280579%, 96.955872%)" offset="0.542969" />
      <stop stop-opacity="1" stop-color="rgb(12.345886%, 67.527771%, 96.99707%)" offset="0.546875" />
      <stop stop-opacity="1" stop-color="rgb(12.327576%, 67.773438%, 97.038269%)" offset="0.550781" />
      <stop stop-opacity="1" stop-color="rgb(12.309265%, 68.02063%, 97.079468%)" offset="0.554688" />
      <stop stop-opacity="1" stop-color="rgb(12.290955%, 68.266296%, 97.120667%)" offset="0.558594" />
      <stop stop-opacity="1" stop-color="rgb(12.272644%, 68.511963%, 97.161865%)" offset="0.5625" />
      <stop stop-opacity="1" stop-color="rgb(12.254333%, 68.757629%, 97.203064%)" offset="0.566406" />
      <stop stop-opacity="1" stop-color="rgb(12.236023%, 69.004822%, 97.244263%)" offset="0.570312" />
      <stop stop-opacity="1" stop-color="rgb(12.216187%, 69.250488%, 97.285461%)" offset="0.574219" />
      <stop stop-opacity="1" stop-color="rgb(12.197876%, 69.496155%, 97.32666%)" offset="0.578125" />
      <stop stop-opacity="1" stop-color="rgb(12.179565%, 69.741821%, 97.367859%)" offset="0.582031" />
      <stop stop-opacity="1" stop-color="rgb(12.161255%, 69.989014%, 97.409058%)" offset="0.585938" />
      <stop stop-opacity="1" stop-color="rgb(12.142944%, 70.23468%, 97.450256%)" offset="0.589844" />
      <stop stop-opacity="1" stop-color="rgb(12.124634%, 70.480347%, 97.491455%)" offset="0.59375" />
      <stop stop-opacity="1" stop-color="rgb(12.106323%, 70.726013%, 97.531128%)" offset="0.597656" />
      <stop stop-opacity="1" stop-color="rgb(12.088013%, 70.973206%, 97.572327%)" offset="0.601563" />
      <stop stop-opacity="1" stop-color="rgb(12.069702%, 71.218872%, 97.613525%)" offset="0.605469" />
      <stop stop-opacity="1" stop-color="rgb(12.051392%, 71.464539%, 97.654724%)" offset="0.609375" />
      <stop stop-opacity="1" stop-color="rgb(12.033081%, 71.710205%, 97.695923%)" offset="0.613281" />
      <stop stop-opacity="1" stop-color="rgb(12.014771%, 71.957397%, 97.737122%)" offset="0.617188" />
      <stop stop-opacity="1" stop-color="rgb(11.994934%, 72.203064%, 97.77832%)" offset="0.621094" />
      <stop stop-opacity="1" stop-color="rgb(11.976624%, 72.450256%, 97.819519%)" offset="0.625" />
      <stop stop-opacity="1" stop-color="rgb(11.958313%, 72.695923%, 97.860718%)" offset="0.628906" />
      <stop stop-opacity="1" stop-color="rgb(11.940002%, 72.941589%, 97.901917%)" offset="0.632812" />
      <stop stop-opacity="1" stop-color="rgb(11.921692%, 73.187256%, 97.943115%)" offset="0.636719" />
      <stop stop-opacity="1" stop-color="rgb(11.903381%, 73.434448%, 97.984314%)" offset="0.640625" />
      <stop stop-opacity="1" stop-color="rgb(11.885071%, 73.680115%, 98.025513%)" offset="0.644531" />
      <stop stop-opacity="1" stop-color="rgb(11.86676%, 73.925781%, 98.066711%)" offset="0.648438" />
      <stop stop-opacity="1" stop-color="rgb(11.84845%, 74.171448%, 98.10791%)" offset="0.652344" />
      <stop stop-opacity="1" stop-color="rgb(11.830139%, 74.41864%, 98.149109%)" offset="0.65625" />
      <stop stop-opacity="1" stop-color="rgb(11.811829%, 74.664307%, 98.188782%)" offset="0.660156" />
      <stop stop-opacity="1" stop-color="rgb(11.793518%, 74.909973%, 98.22998%)" offset="0.664062" />
      <stop stop-opacity="1" stop-color="rgb(11.773682%, 75.15564%, 98.271179%)" offset="0.667969" />
      <stop stop-opacity="1" stop-color="rgb(11.755371%, 75.402832%, 98.312378%)" offset="0.671875" />
      <stop stop-opacity="1" stop-color="rgb(11.737061%, 75.648499%, 98.353577%)" offset="0.675781" />
      <stop stop-opacity="1" stop-color="rgb(11.71875%, 75.895691%, 98.394775%)" offset="0.679688" />
      <stop stop-opacity="1" stop-color="rgb(11.700439%, 76.141357%, 98.435974%)" offset="0.683594" />
      <stop stop-opacity="1" stop-color="rgb(11.682129%, 76.387024%, 98.477173%)" offset="0.6875" />
      <stop stop-opacity="1" stop-color="rgb(11.663818%, 76.63269%, 98.518372%)" offset="0.691406" />
      <stop stop-opacity="1" stop-color="rgb(11.645508%, 76.879883%, 98.55957%)" offset="0.695312" />
      <stop stop-opacity="1" stop-color="rgb(11.627197%, 77.125549%, 98.600769%)" offset="0.699219" />
      <stop stop-opacity="1" stop-color="rgb(11.608887%, 77.371216%, 98.641968%)" offset="0.703125" />
      <stop stop-opacity="1" stop-color="rgb(11.58905%, 77.616882%, 98.683167%)" offset="0.707031" />
      <stop stop-opacity="1" stop-color="rgb(11.57074%, 77.864075%, 98.724365%)" offset="0.710938" />
      <stop stop-opacity="1" stop-color="rgb(11.552429%, 78.109741%, 98.765564%)" offset="0.714844" />
      <stop stop-opacity="1" stop-color="rgb(11.534119%, 78.355408%, 98.806763%)" offset="0.71875" />
      <stop stop-opacity="1" stop-color="rgb(11.515808%, 78.601074%, 98.846436%)" offset="0.722656" />
      <stop stop-opacity="1" stop-color="rgb(11.497498%, 78.848267%, 98.887634%)" offset="0.726562" />
      <stop stop-opacity="1" stop-color="rgb(11.479187%, 79.093933%, 98.928833%)" offset="0.730469" />
      <stop stop-opacity="1" stop-color="rgb(11.460876%, 79.3396%, 98.970032%)" offset="0.734375" />
      <stop stop-opacity="1" stop-color="rgb(11.442566%, 79.585266%, 99.01123%)" offset="0.738281" />
      <stop stop-opacity="1" stop-color="rgb(11.424255%, 79.832458%, 99.052429%)" offset="0.742188" />
      <stop stop-opacity="1" stop-color="rgb(11.405945%, 80.078125%, 99.093628%)" offset="0.746094" />
      <stop stop-opacity="1" stop-color="rgb(11.387634%, 80.325317%, 99.134827%)" offset="0.75" />
      <stop stop-opacity="1" stop-color="rgb(11.367798%, 80.570984%, 99.176025%)" offset="0.753906" />
      <stop stop-opacity="1" stop-color="rgb(11.349487%, 80.81665%, 99.217224%)" offset="0.757812" />
      <stop stop-opacity="1" stop-color="rgb(11.331177%, 81.062317%, 99.258423%)" offset="0.761719" />
      <stop stop-opacity="1" stop-color="rgb(11.312866%, 81.309509%, 99.299622%)" offset="0.765625" />
      <stop stop-opacity="1" stop-color="rgb(11.294556%, 81.555176%, 99.34082%)" offset="0.769531" />
      <stop stop-opacity="1" stop-color="rgb(11.276245%, 81.800842%, 99.382019%)" offset="0.773438" />
      <stop stop-opacity="1" stop-color="rgb(11.257935%, 82.046509%, 99.423218%)" offset="0.777344" />
      <stop stop-opacity="1" stop-color="rgb(11.239624%, 82.293701%, 99.464417%)" offset="0.78125" />
      <stop stop-opacity="1" stop-color="rgb(11.221313%, 82.539368%, 99.504089%)" offset="0.785156" />
      <stop stop-opacity="1" stop-color="rgb(11.203003%, 82.785034%, 99.545288%)" offset="0.789063" />
      <stop stop-opacity="1" stop-color="rgb(11.184692%, 83.030701%, 99.586487%)" offset="0.792969" />
      <stop stop-opacity="1" stop-color="rgb(11.166382%, 83.277893%, 99.627686%)" offset="0.796875" />
      <stop stop-opacity="1" stop-color="rgb(11.146545%, 83.52356%, 99.668884%)" offset="0.800781" />
      <stop stop-opacity="1" stop-color="rgb(11.128235%, 83.769226%, 99.710083%)" offset="0.804688" />
      <stop stop-opacity="1" stop-color="rgb(11.109924%, 84.014893%, 99.751282%)" offset="0.808594" />
      <stop stop-opacity="1" stop-color="rgb(11.091614%, 84.262085%, 99.79248%)" offset="0.8125" />
      <stop stop-opacity="1" stop-color="rgb(11.073303%, 84.507751%, 99.833679%)" offset="0.816406" />
      <stop stop-opacity="1" stop-color="rgb(11.054993%, 84.754944%, 99.874878%)" offset="0.820313" />
      <stop stop-opacity="1" stop-color="rgb(11.036682%, 85.00061%, 99.916077%)" offset="0.824219" />
      <stop stop-opacity="1" stop-color="rgb(11.018372%, 85.246277%, 99.957275%)" offset="0.828125" />
      <stop stop-opacity="1" stop-color="rgb(11.00769%, 85.372925%, 99.978638%)" offset="0.84375" />
      <stop stop-opacity="1" stop-color="rgb(10.998535%, 85.499573%, 100%)" offset="0.875" />
      <stop stop-opacity="1" stop-color="rgb(10.998535%, 85.499573%, 100%)" offset="1" />
    </linearGradient>
  </defs>
  <g clip-path="url(#1aee0edce6)">
    <g clip-path="url(#7ccd2c3582)">
      <path fill="url(#81e83fb00a)"
        d="M 37.875 148.1875 L 37.875 226.804688 L 112.757812 226.804688 L 112.757812 148.1875 Z M 37.875 148.1875 "
        fill-rule="nonzero" />
    </g>
  </g>
  <g fill="#1d1d1f" fill-opacity="1">
    <g transform="translate(120.828798, 201.66812)">
      <g>
        <path
          d="M 11.171875 0.484375 C 9.441406 0.484375 7.71875 0.164062 6 -0.46875 C 4.289062 -1.101562 2.765625 -2.050781 1.421875 -3.3125 L 4.8125 -7.40625 C 5.757812 -6.59375 6.804688 -5.929688 7.953125 -5.421875 C 9.097656 -4.910156 10.222656 -4.65625 11.328125 -4.65625 C 12.578125 -4.65625 13.503906 -4.882812 14.109375 -5.34375 C 14.710938 -5.800781 15.015625 -6.421875 15.015625 -7.203125 C 15.015625 -7.609375 14.925781 -7.957031 14.75 -8.25 C 14.582031 -8.550781 14.328125 -8.816406 13.984375 -9.046875 C 13.648438 -9.273438 13.242188 -9.488281 12.765625 -9.6875 C 12.296875 -9.894531 11.78125 -10.117188 11.21875 -10.359375 L 7.765625 -11.828125 C 7.097656 -12.085938 6.445312 -12.429688 5.8125 -12.859375 C 5.175781 -13.296875 4.609375 -13.804688 4.109375 -14.390625 C 3.609375 -14.972656 3.207031 -15.644531 2.90625 -16.40625 C 2.613281 -17.175781 2.46875 -18.050781 2.46875 -19.03125 C 2.46875 -20.101562 2.695312 -21.117188 3.15625 -22.078125 C 3.613281 -23.035156 4.257812 -23.875 5.09375 -24.59375 C 5.9375 -25.3125 6.929688 -25.867188 8.078125 -26.265625 C 9.222656 -26.671875 10.484375 -26.875 11.859375 -26.875 C 13.398438 -26.875 14.914062 -26.578125 16.40625 -25.984375 C 17.90625 -25.390625 19.222656 -24.53125 20.359375 -23.40625 L 17.328125 -19.640625 C 16.460938 -20.304688 15.597656 -20.820312 14.734375 -21.1875 C 13.867188 -21.550781 12.910156 -21.734375 11.859375 -21.734375 C 10.835938 -21.734375 10.019531 -21.523438 9.40625 -21.109375 C 8.800781 -20.691406 8.5 -20.101562 8.5 -19.34375 C 8.5 -18.945312 8.597656 -18.601562 8.796875 -18.3125 C 9.003906 -18.03125 9.289062 -17.773438 9.65625 -17.546875 C 10.019531 -17.316406 10.441406 -17.097656 10.921875 -16.890625 C 11.410156 -16.691406 11.941406 -16.472656 12.515625 -16.234375 L 15.90625 -14.859375 C 17.53125 -14.210938 18.804688 -13.320312 19.734375 -12.1875 C 20.671875 -11.050781 21.140625 -9.550781 21.140625 -7.6875 C 21.140625 -6.582031 20.914062 -5.535156 20.46875 -4.546875 C 20.019531 -3.566406 19.367188 -2.703125 18.515625 -1.953125 C 17.671875 -1.210938 16.625 -0.617188 15.375 -0.171875 C 14.132812 0.265625 12.734375 0.484375 11.171875 0.484375 Z M 11.171875 0.484375 " />
      </g>
    </g>
  </g>
  <g fill="#1d1d1f" fill-opacity="1">
    <g transform="translate(143.33586, 201.66812)">
      <g>
        <path
          d="M 10.359375 0.484375 C 9.117188 0.484375 8.0625 0.296875 7.1875 -0.078125 C 6.3125 -0.453125 5.59375 -0.976562 5.03125 -1.65625 C 4.476562 -2.332031 4.070312 -3.148438 3.8125 -4.109375 C 3.5625 -5.066406 3.4375 -6.125 3.4375 -7.28125 L 3.4375 -15.421875 L 0.6875 -15.421875 L 0.6875 -19.84375 L 3.765625 -20.078125 L 4.453125 -25.421875 L 9.390625 -25.421875 L 9.390625 -20.078125 L 14.203125 -20.078125 L 14.203125 -15.421875 L 9.390625 -15.421875 L 9.390625 -7.375 C 9.390625 -6.238281 9.625 -5.421875 10.09375 -4.921875 C 10.570312 -4.421875 11.203125 -4.171875 11.984375 -4.171875 C 12.304688 -4.171875 12.632812 -4.207031 12.96875 -4.28125 C 13.3125 -4.363281 13.617188 -4.460938 13.890625 -4.578125 L 14.8125 -0.25 C 14.269531 -0.0820312 13.632812 0.078125 12.90625 0.234375 C 12.1875 0.398438 11.335938 0.484375 10.359375 0.484375 Z M 10.359375 0.484375 " />
      </g>
    </g>
  </g>
  <g fill="#1d1d1f" fill-opacity="1">
    <g transform="translate(158.839835, 201.66812)">
      <g>
        <path
          d="M 7.6875 0.484375 C 6.769531 0.484375 5.941406 0.328125 5.203125 0.015625 C 4.460938 -0.296875 3.832031 -0.726562 3.3125 -1.28125 C 2.800781 -1.832031 2.40625 -2.472656 2.125 -3.203125 C 1.84375 -3.929688 1.703125 -4.726562 1.703125 -5.59375 C 1.703125 -7.695312 2.59375 -9.34375 4.375 -10.53125 C 6.15625 -11.71875 9.03125 -12.515625 13 -12.921875 C 12.945312 -13.804688 12.679688 -14.507812 12.203125 -15.03125 C 11.734375 -15.5625 10.945312 -15.828125 9.84375 -15.828125 C 8.976562 -15.828125 8.117188 -15.664062 7.265625 -15.34375 C 6.410156 -15.019531 5.5 -14.570312 4.53125 -14 L 2.390625 -17.9375 C 3.679688 -18.71875 5.035156 -19.347656 6.453125 -19.828125 C 7.867188 -20.316406 9.375 -20.5625 10.96875 -20.5625 C 13.5625 -20.5625 15.539062 -19.828125 16.90625 -18.359375 C 18.269531 -16.890625 18.953125 -14.601562 18.953125 -11.5 L 18.953125 0 L 14.09375 0 L 13.6875 -2.0625 L 13.515625 -2.0625 C 12.648438 -1.3125 11.742188 -0.695312 10.796875 -0.21875 C 9.859375 0.25 8.820312 0.484375 7.6875 0.484375 Z M 9.71875 -4.125 C 10.394531 -4.125 10.972656 -4.269531 11.453125 -4.5625 C 11.941406 -4.863281 12.457031 -5.285156 13 -5.828125 L 13 -9.359375 C 10.894531 -9.054688 9.4375 -8.617188 8.625 -8.046875 C 7.8125 -7.484375 7.40625 -6.8125 7.40625 -6.03125 C 7.40625 -5.382812 7.613281 -4.90625 8.03125 -4.59375 C 8.445312 -4.28125 9.007812 -4.125 9.71875 -4.125 Z M 9.71875 -4.125 " />
      </g>
    </g>
  </g>
  <g fill="#1d1d1f" fill-opacity="1">
    <g transform="translate(180.172979, 201.66812)">
      <g>
        <path
          d="M 11.375 0.484375 C 9.96875 0.484375 8.664062 0.25 7.46875 -0.21875 C 6.269531 -0.695312 5.222656 -1.378906 4.328125 -2.265625 C 3.441406 -3.160156 2.738281 -4.257812 2.21875 -5.5625 C 1.707031 -6.875 1.453125 -8.367188 1.453125 -10.046875 C 1.453125 -11.710938 1.734375 -13.203125 2.296875 -14.515625 C 2.867188 -15.828125 3.632812 -16.925781 4.59375 -17.8125 C 5.550781 -18.707031 6.664062 -19.390625 7.9375 -19.859375 C 9.207031 -20.328125 10.53125 -20.5625 11.90625 -20.5625 C 13.144531 -20.5625 14.242188 -20.359375 15.203125 -19.953125 C 16.160156 -19.546875 17.015625 -19.035156 17.765625 -18.421875 L 14.984375 -14.578125 C 14.035156 -15.359375 13.128906 -15.75 12.265625 -15.75 C 10.804688 -15.75 9.660156 -15.234375 8.828125 -14.203125 C 7.992188 -13.179688 7.578125 -11.796875 7.578125 -10.046875 C 7.578125 -8.285156 8 -6.890625 8.84375 -5.859375 C 9.695312 -4.835938 10.769531 -4.328125 12.0625 -4.328125 C 12.707031 -4.328125 13.332031 -4.46875 13.9375 -4.75 C 14.550781 -5.039062 15.128906 -5.390625 15.671875 -5.796875 L 18.015625 -1.90625 C 17.015625 -1.039062 15.929688 -0.425781 14.765625 -0.0625 C 13.609375 0.300781 12.476562 0.484375 11.375 0.484375 Z M 11.375 0.484375 " />
      </g>
    </g>
  </g>
  <g fill="#1d1d1f" fill-opacity="1">
    <g transform="translate(199.077289, 201.66812)">
      <g>
        <path
          d="M 2.625 0 L 2.625 -28.375 L 8.421875 -28.375 L 8.421875 -12.109375 L 8.578125 -12.109375 L 14.9375 -20.078125 L 21.421875 -20.078125 L 14.375 -11.828125 L 21.9375 0 L 15.5 0 L 10.96875 -7.8125 L 8.421875 -4.9375 L 8.421875 0 Z M 2.625 0 " />
      </g>
    </g>
  </g>
  <g fill="#1d1d1f" fill-opacity="1">
    <g transform="translate(221.260517, 201.66812)">
      <g>
        <path
          d="M 13.15625 0.484375 C 12.269531 0.484375 11.375 0.265625 10.46875 -0.171875 C 9.5625 -0.617188 8.71875 -1.273438 7.9375 -2.140625 L 7.765625 -2.140625 L 7.28125 0 L 2.625 0 L 2.625 -28.375 L 8.578125 -28.375 L 8.578125 -21.421875 L 8.421875 -18.34375 C 9.203125 -19.039062 10.046875 -19.582031 10.953125 -19.96875 C 11.859375 -20.363281 12.78125 -20.5625 13.71875 -20.5625 C 14.9375 -20.5625 16.03125 -20.316406 17 -19.828125 C 17.96875 -19.347656 18.796875 -18.671875 19.484375 -17.796875 C 20.179688 -16.921875 20.710938 -15.851562 21.078125 -14.59375 C 21.441406 -13.34375 21.625 -11.945312 21.625 -10.40625 C 21.625 -8.675781 21.382812 -7.132812 20.90625 -5.78125 C 20.4375 -4.4375 19.800781 -3.296875 19 -2.359375 C 18.207031 -1.429688 17.304688 -0.722656 16.296875 -0.234375 C 15.285156 0.242188 14.238281 0.484375 13.15625 0.484375 Z M 11.78125 -4.375 C 12.800781 -4.375 13.675781 -4.835938 14.40625 -5.765625 C 15.132812 -6.703125 15.5 -8.207031 15.5 -10.28125 C 15.5 -13.894531 14.34375 -15.703125 12.03125 -15.703125 C 10.84375 -15.703125 9.691406 -15.097656 8.578125 -13.890625 L 8.578125 -5.671875 C 9.117188 -5.179688 9.660156 -4.84375 10.203125 -4.65625 C 10.742188 -4.46875 11.269531 -4.375 11.78125 -4.375 Z M 11.78125 -4.375 " />
      </g>
    </g>
  </g>
  <g fill="#1d1d1f" fill-opacity="1">
    <g transform="translate(244.455753, 201.66812)">
      <g>
        <path
          d="M 2.625 0 L 2.625 -20.078125 L 7.484375 -20.078125 L 7.890625 -16.5625 L 8.0625 -16.5625 C 8.789062 -17.9375 9.664062 -18.945312 10.6875 -19.59375 C 11.707031 -20.238281 12.734375 -20.5625 13.765625 -20.5625 C 14.328125 -20.5625 14.789062 -20.523438 15.15625 -20.453125 C 15.519531 -20.390625 15.851562 -20.289062 16.15625 -20.15625 L 15.1875 -15.015625 C 14.800781 -15.128906 14.445312 -15.210938 14.125 -15.265625 C 13.800781 -15.316406 13.425781 -15.34375 13 -15.34375 C 12.238281 -15.34375 11.445312 -15.070312 10.625 -14.53125 C 9.800781 -13.988281 9.117188 -13.03125 8.578125 -11.65625 L 8.578125 0 Z M 2.625 0 " />
      </g>
    </g>
  </g>
  <g fill="#1d1d1f" fill-opacity="1">
    <g transform="translate(260.566924, 201.66812)">
      <g>
        <path
          d="M 2.625 0 L 2.625 -20.078125 L 8.578125 -20.078125 L 8.578125 0 Z M 5.59375 -23.03125 C 4.59375 -23.03125 3.765625 -23.320312 3.109375 -23.90625 C 2.460938 -24.488281 2.140625 -25.238281 2.140625 -26.15625 C 2.140625 -27.070312 2.460938 -27.8125 3.109375 -28.375 C 3.765625 -28.945312 4.59375 -29.234375 5.59375 -29.234375 C 6.613281 -29.234375 7.441406 -28.945312 8.078125 -28.375 C 8.710938 -27.8125 9.03125 -27.070312 9.03125 -26.15625 C 9.03125 -25.238281 8.710938 -24.488281 8.078125 -23.90625 C 7.441406 -23.320312 6.613281 -23.03125 5.59375 -23.03125 Z M 5.59375 -23.03125 " />
      </g>
    </g>
  </g>
  <g fill="#1d1d1f" fill-opacity="1">
    <g transform="translate(271.739501, 201.66812)">
      <g>
        <path
          d="M 9.796875 0.484375 C 8.554688 0.484375 7.429688 0.242188 6.421875 -0.234375 C 5.410156 -0.722656 4.546875 -1.421875 3.828125 -2.328125 C 3.109375 -3.234375 2.550781 -4.332031 2.15625 -5.625 C 1.769531 -6.925781 1.578125 -8.398438 1.578125 -10.046875 C 1.578125 -11.691406 1.8125 -13.160156 2.28125 -14.453125 C 2.757812 -15.742188 3.378906 -16.84375 4.140625 -17.75 C 4.910156 -18.65625 5.800781 -19.347656 6.8125 -19.828125 C 7.832031 -20.316406 8.867188 -20.5625 9.921875 -20.5625 C 11.054688 -20.5625 11.988281 -20.375 12.71875 -20 C 13.445312 -19.625 14.160156 -19.109375 14.859375 -18.453125 L 14.609375 -21.53125 L 14.609375 -28.375 L 20.5625 -28.375 L 20.5625 0 L 15.703125 0 L 15.296875 -1.984375 L 15.140625 -1.984375 C 14.441406 -1.285156 13.617188 -0.695312 12.671875 -0.21875 C 11.722656 0.25 10.765625 0.484375 9.796875 0.484375 Z M 11.328125 -4.375 C 11.984375 -4.375 12.570312 -4.507812 13.09375 -4.78125 C 13.625 -5.050781 14.128906 -5.519531 14.609375 -6.1875 L 14.609375 -14.40625 C 14.078125 -14.894531 13.523438 -15.234375 12.953125 -15.421875 C 12.390625 -15.609375 11.835938 -15.703125 11.296875 -15.703125 C 10.347656 -15.703125 9.507812 -15.25 8.78125 -14.34375 C 8.050781 -13.445312 7.6875 -12.039062 7.6875 -10.125 C 7.6875 -8.125 8.003906 -6.664062 8.640625 -5.75 C 9.273438 -4.832031 10.171875 -4.375 11.328125 -4.375 Z M 11.328125 -4.375 " />
      </g>
    </g>
  </g>
  <g fill="#1d1d1f" fill-opacity="1">
    <g transform="translate(294.934737, 201.66812)">
      <g>
        <path
          d="M 9.796875 8.546875 C 8.609375 8.546875 7.507812 8.441406 6.5 8.234375 C 5.488281 8.035156 4.597656 7.734375 3.828125 7.328125 C 3.054688 6.921875 2.453125 6.394531 2.015625 5.75 C 1.585938 5.101562 1.375 4.332031 1.375 3.4375 C 1.375 1.820312 2.332031 0.472656 4.25 -0.609375 L 4.25 -0.765625 C 3.707031 -1.117188 3.257812 -1.566406 2.90625 -2.109375 C 2.5625 -2.648438 2.390625 -3.335938 2.390625 -4.171875 C 2.390625 -4.898438 2.601562 -5.59375 3.03125 -6.25 C 3.46875 -6.914062 4.007812 -7.476562 4.65625 -7.9375 L 4.65625 -8.09375 C 3.957031 -8.582031 3.328125 -9.273438 2.765625 -10.171875 C 2.210938 -11.078125 1.9375 -12.125 1.9375 -13.3125 C 1.9375 -14.53125 2.164062 -15.59375 2.625 -16.5 C 3.082031 -17.40625 3.695312 -18.160156 4.46875 -18.765625 C 5.238281 -19.367188 6.125 -19.816406 7.125 -20.109375 C 8.125 -20.410156 9.164062 -20.5625 10.25 -20.5625 C 11.4375 -20.5625 12.472656 -20.398438 13.359375 -20.078125 L 20.6875 -20.078125 L 20.6875 -15.75 L 17.484375 -15.75 C 17.671875 -15.445312 17.828125 -15.066406 17.953125 -14.609375 C 18.078125 -14.148438 18.140625 -13.648438 18.140625 -13.109375 C 18.140625 -11.953125 17.9375 -10.945312 17.53125 -10.09375 C 17.125 -9.25 16.5625 -8.550781 15.84375 -8 C 15.132812 -7.445312 14.300781 -7.035156 13.34375 -6.765625 C 12.382812 -6.492188 11.351562 -6.359375 10.25 -6.359375 C 9.457031 -6.359375 8.644531 -6.492188 7.8125 -6.765625 C 7.539062 -6.546875 7.347656 -6.328125 7.234375 -6.109375 C 7.128906 -5.898438 7.078125 -5.617188 7.078125 -5.265625 C 7.078125 -4.753906 7.300781 -4.375 7.75 -4.125 C 8.195312 -3.882812 8.988281 -3.765625 10.125 -3.765625 L 13.359375 -3.765625 C 15.835938 -3.765625 17.734375 -3.363281 19.046875 -2.5625 C 20.359375 -1.769531 21.015625 -0.46875 21.015625 1.34375 C 21.015625 2.394531 20.75 3.359375 20.21875 4.234375 C 19.695312 5.109375 18.945312 5.863281 17.96875 6.5 C 17 7.132812 15.828125 7.632812 14.453125 8 C 13.078125 8.363281 11.523438 8.546875 9.796875 8.546875 Z M 10.25 -9.953125 C 11.03125 -9.953125 11.679688 -10.226562 12.203125 -10.78125 C 12.734375 -11.34375 13 -12.1875 13 -13.3125 C 13 -14.363281 12.734375 -15.164062 12.203125 -15.71875 C 11.679688 -16.28125 11.03125 -16.5625 10.25 -16.5625 C 9.457031 -16.5625 8.796875 -16.289062 8.265625 -15.75 C 7.742188 -15.207031 7.484375 -14.394531 7.484375 -13.3125 C 7.484375 -12.1875 7.742188 -11.34375 8.265625 -10.78125 C 8.796875 -10.226562 9.457031 -9.953125 10.25 -9.953125 Z M 10.734375 4.8125 C 12.078125 4.8125 13.179688 4.578125 14.046875 4.109375 C 14.910156 3.640625 15.34375 3.050781 15.34375 2.34375 C 15.34375 1.726562 15.078125 1.3125 14.546875 1.09375 C 14.023438 0.875 13.265625 0.765625 12.265625 0.765625 L 10.203125 0.765625 C 9.503906 0.765625 8.9375 0.742188 8.5 0.703125 C 8.070312 0.660156 7.695312 0.601562 7.375 0.53125 C 6.644531 1.175781 6.28125 1.835938 6.28125 2.515625 C 6.28125 3.265625 6.679688 3.832031 7.484375 4.21875 C 8.296875 4.613281 9.378906 4.8125 10.734375 4.8125 Z M 10.734375 4.8125 " />
      </g>
    </g>
  </g>
  <g fill="#1d1d1f" fill-opacity="1">
    <g transform="translate(316.551241, 201.66812)">
      <g>
        <path
          d="M 11.625 0.484375 C 10.1875 0.484375 8.847656 0.25 7.609375 -0.21875 C 6.367188 -0.695312 5.289062 -1.382812 4.375 -2.28125 C 3.457031 -3.1875 2.738281 -4.285156 2.21875 -5.578125 C 1.707031 -6.878906 1.453125 -8.367188 1.453125 -10.046875 C 1.453125 -11.660156 1.722656 -13.117188 2.265625 -14.421875 C 2.804688 -15.734375 3.515625 -16.84375 4.390625 -17.75 C 5.265625 -18.65625 6.269531 -19.347656 7.40625 -19.828125 C 8.539062 -20.316406 9.71875 -20.5625 10.9375 -20.5625 C 12.363281 -20.5625 13.609375 -20.316406 14.671875 -19.828125 C 15.742188 -19.347656 16.632812 -18.675781 17.34375 -17.8125 C 18.0625 -16.945312 18.59375 -15.925781 18.9375 -14.75 C 19.289062 -13.582031 19.46875 -12.3125 19.46875 -10.9375 C 19.46875 -10.394531 19.441406 -9.878906 19.390625 -9.390625 C 19.335938 -8.898438 19.285156 -8.535156 19.234375 -8.296875 L 7.203125 -8.296875 C 7.472656 -6.835938 8.070312 -5.765625 9 -5.078125 C 9.9375 -4.390625 11.078125 -4.046875 12.421875 -4.046875 C 13.859375 -4.046875 15.304688 -4.492188 16.765625 -5.390625 L 18.75 -1.78125 C 17.71875 -1.082031 16.570312 -0.53125 15.3125 -0.125 C 14.0625 0.28125 12.832031 0.484375 11.625 0.484375 Z M 7.171875 -12.21875 L 14.40625 -12.21875 C 14.40625 -13.351562 14.148438 -14.269531 13.640625 -14.96875 C 13.128906 -15.675781 12.265625 -16.03125 11.046875 -16.03125 C 10.109375 -16.03125 9.28125 -15.71875 8.5625 -15.09375 C 7.84375 -14.476562 7.378906 -13.519531 7.171875 -12.21875 Z M 7.171875 -12.21875 " />
      </g>
    </g>
  </g>
</svg>